<?xml version="1.0" encoding="utf-8"?>
<!-- Generator: Adobe Illustrator 27.5.0, SVG Export Plug-In . SVG Version: 6.00 Build 0)  -->
<svg version="1.1" xmlns="http://www.w3.org/2000/svg" xmlns:xlink="http://www.w3.org/1999/xlink" x="0px" y="0px"
	 viewBox="0 0 500 500" style="enable-background:new 0 0 500 500;" xml:space="preserve">
<g id="Background_Complete">
	<g>
		<rect y="382.398" style="fill:#EBEBEB;" width="500" height="0.25"/>
		<rect x="416.779" y="398.494" style="fill:#EBEBEB;" width="33.122" height="0.25"/>
		<rect x="322.527" y="401.208" style="fill:#EBEBEB;" width="8.693" height="0.25"/>
		<rect x="396.586" y="389.208" style="fill:#EBEBEB;" width="19.192" height="0.25"/>
		<rect x="52.459" y="390.888" style="fill:#EBEBEB;" width="43.193" height="0.25"/>
		<rect x="104.556" y="390.888" style="fill:#EBEBEB;" width="6.333" height="0.25"/>
		<rect x="131.471" y="395.111" style="fill:#EBEBEB;" width="93.676" height="0.25"/>
		<path style="fill:#EBEBEB;" d="M237.014,337.8H43.915c-3.147,0-5.708-2.561-5.708-5.708V60.66c0-3.147,2.561-5.708,5.708-5.708
			h193.099c3.146,0,5.707,2.561,5.707,5.708v271.432C242.721,335.239,240.16,337.8,237.014,337.8z M43.915,55.203
			c-3.01,0-5.458,2.448-5.458,5.458v271.432c0,3.01,2.448,5.458,5.458,5.458h193.099c3.009,0,5.457-2.448,5.457-5.458V60.66
			c0-3.009-2.448-5.458-5.457-5.458H43.915z"/>
		<path style="fill:#EBEBEB;" d="M453.31,337.8H260.212c-3.147,0-5.707-2.561-5.707-5.708V60.66c0-3.147,2.561-5.708,5.707-5.708
			H453.31c3.148,0,5.708,2.561,5.708,5.708v271.432C459.019,335.239,456.458,337.8,453.31,337.8z M260.212,55.203
			c-3.009,0-5.457,2.448-5.457,5.458v271.432c0,3.01,2.448,5.458,5.457,5.458H453.31c3.01,0,5.458-2.448,5.458-5.458V60.66
			c0-3.009-2.448-5.458-5.458-5.458H260.212z"/>
	</g>
	<g>
		<g>
			<polygon style="fill:#E0E0E0;" points="199.231,308.791 190.801,308.791 185.235,308.791 200.821,321.689 203.684,321.689 
				206.229,321.689 202.594,316.162 213.211,321.689 215.772,321.689 218.794,321.689 			"/>
			<g>
				<polygon style="fill:#E0E0E0;" points="88.745,321.689 94.328,321.689 106.717,315.24 101.31,321.689 106.717,321.689 
					122.304,308.791 108.308,308.791 				"/>
				<polygon style="fill:#F0F0F0;" points="103.854,321.689 116.737,308.791 108.308,308.791 88.745,321.689 91.767,321.689 
					106.717,313.469 101.31,321.689 				"/>
			</g>
			<path style="fill:#E0E0E0;" d="M60.259,321.689v61.183H248.68v-61.183H60.259z M245.6,345.65H94.328v-19.997H245.6V345.65z"/>
			<path style="fill:#EBEBEB;" d="M90.211,321.689v61.183H248.68v-61.183H90.211z M245.6,345.65H94.328v-19.997H245.6V345.65z"/>
			<rect x="218.021" y="325.657" style="fill:#E0E0E0;" width="27.582" height="19.993"/>
			<rect x="94.328" y="335.653" style="fill:#E0E0E0;" width="39.94" height="9.996"/>
			<rect x="136.784" y="339.712" style="fill:#E0E0E0;" width="25.688" height="5.938"/>
			<rect x="168.411" y="333.504" style="fill:#E0E0E0;" width="30.29" height="12.146"/>
			<polygon style="fill:#E0E0E0;" points="124.4,350.004 123.666,352.393 113.844,352.393 113.111,350.004 94.328,350.004 
				94.328,376.548 143.183,376.548 143.183,350.004 			"/>
			<polygon style="fill:#E0E0E0;" points="175.545,350.004 174.812,352.393 164.99,352.393 164.257,350.004 145.474,350.004 
				145.474,376.548 194.329,376.548 194.329,350.004 			"/>
			<polygon style="fill:#E0E0E0;" points="226.691,350.004 225.958,352.393 216.136,352.393 215.403,350.004 196.619,350.004 
				196.619,376.548 245.474,376.548 245.474,350.004 			"/>
			<g>
				<path style="fill:#E0E0E0;" d="M215.491,310.498H85.701c-1.95,0-3.53-1.581-3.53-3.53v-75.63c0-1.95,1.581-3.53,3.53-3.53
					h129.79c1.95,0,3.531,1.581,3.531,3.53v75.63C219.021,308.918,217.44,310.498,215.491,310.498z"/>
				<path style="fill:#E6E6E6;" d="M218.707,310.498H88.917c-1.95,0-3.53-1.581-3.53-3.53v-75.63c0-1.95,1.581-3.53,3.53-3.53
					h129.79c1.95,0,3.531,1.581,3.531,3.53v75.63C222.237,308.918,220.657,310.498,218.707,310.498z"/>
				
					<rect x="116.487" y="204.748" transform="matrix(-1.836970e-16 1 -1 -1.836970e-16 422.9647 115.3407)" style="fill:#F0F0F0;" width="74.65" height="128.81"/>
			</g>
		</g>
		<g>
			
				<ellipse transform="matrix(0.9695 -0.2452 0.2452 0.9695 -17.6105 94.9012)" style="fill:#E0E0E0;" cx="372.315" cy="118.174" rx="18.939" ry="18.939"/>
			
				<ellipse transform="matrix(0.2298 -0.9732 0.9732 0.2298 171.762 453.3787)" style="fill:#F0F0F0;" cx="372.315" cy="118.174" rx="16.103" ry="16.103"/>
			
				<polyline style="fill:#F0F0F0;stroke:#E0E0E0;stroke-width:2;stroke-linecap:round;stroke-linejoin:round;stroke-miterlimit:10;" points="
				371.556,107.127 371.556,118.384 364.096,114.163 			"/>
		</g>
		<g>
			<path style="fill:#E6E6E6;" d="M114.369,118.237c0,0-0.914-6.025,3.481-9.888c4.394-3.863,4.008-6.161,2.753-6.461
				c-1.256-0.3-2.415,3.564-4.346,4.626c0,0-0.061-5.505,1.901-7.533c1.962-2.028,2.992-7.253,1.125-7.345
				c-1.867-0.092-2.06,3.103-2.446,5.369c-0.386,2.266-2.467,5.453-2.467,5.453s-0.406-4.926-1.674-6.954
				c-1.268-2.028,2.112-6.664,0.809-8.692c-1.304-2.028-3.622,1.835-3.429,6.181s3.091,8.982,2.414,13.521
				c0,0-1.278-3.187-2.426-3.477c-1.148-0.29-2.307-2.398-3.079-3.179c-0.773-0.781-1.738,1.923,0,4.434
				c1.738,2.511,6.181,9.229,5.505,14.659L114.369,118.237z"/>
			<path style="fill:#E6E6E6;" d="M116.996,115.496l1.439,9.03c0.445,2.789-1.71,5.314-4.535,5.314h-1.535
				c-2.824,0-4.979-2.525-4.534-5.314l1.439-9.03H116.996z"/>
			
				<rect x="95.23" y="126.508" transform="matrix(-1 -1.224647e-16 1.224647e-16 -1 292.1814 258.2432)" style="fill:#E0E0E0;" width="101.721" height="5.226"/>
			
				<rect x="187.788" y="107.243" transform="matrix(-1 -1.224647e-16 1.224647e-16 -1 380.0571 233.7518)" style="fill:#EBEBEB;" width="4.481" height="19.265"/>
			
				<rect x="166.119" y="107.243" transform="matrix(-1 -1.224647e-16 1.224647e-16 -1 336.7188 233.7518)" style="fill:#EBEBEB;" width="4.481" height="19.265"/>
			
				<rect x="139.85" y="107.003" transform="matrix(-0.9855 -0.1698 0.1698 -0.9855 262.3091 255.7081)" style="fill:#EBEBEB;" width="4.481" height="19.265"/>
			
				<rect x="182.235" y="109.782" transform="matrix(-1 -1.224647e-16 1.224647e-16 -1 368.9515 236.2905)" style="fill:#EBEBEB;" width="4.482" height="16.726"/>
			
				<rect x="171.935" y="109.782" transform="matrix(-1 -1.224647e-16 1.224647e-16 -1 348.3505 236.2905)" style="fill:#EBEBEB;" width="4.481" height="16.726"/>
			
				<rect x="145.935" y="109.782" transform="matrix(-1 -1.224647e-16 1.224647e-16 -1 296.3517 236.2905)" style="fill:#EBEBEB;" width="4.482" height="16.726"/>
			
				<rect x="158.365" y="109.495" transform="matrix(-0.9762 -0.2169 0.2169 -0.9762 291.8254 267.746)" style="fill:#EBEBEB;" width="4.481" height="16.726"/>
			
				<rect x="178.36" y="106.287" transform="matrix(-1 -1.224647e-16 1.224647e-16 -1 358.9608 232.7953)" style="fill:#EBEBEB;" width="2.241" height="20.222"/>
			
				<rect x="151.705" y="106.287" transform="matrix(-1 -1.224647e-16 1.224647e-16 -1 305.6502 232.7953)" style="fill:#EBEBEB;" width="2.241" height="20.222"/>
		</g>
		<g>
			<rect x="95.23" y="165.525" style="fill:#E0E0E0;" width="101.721" height="5.226"/>
			<rect x="99.912" y="146.26" style="fill:#EBEBEB;" width="4.481" height="19.265"/>
			<rect x="121.581" y="146.26" style="fill:#EBEBEB;" width="4.481" height="19.265"/>
			
				<rect x="147.85" y="146.019" transform="matrix(0.9855 -0.1698 0.1698 0.9855 -24.2552 27.7525)" style="fill:#EBEBEB;" width="4.481" height="19.265"/>
			<rect x="105.465" y="148.799" style="fill:#EBEBEB;" width="4.481" height="16.726"/>
			<rect x="115.765" y="148.799" style="fill:#EBEBEB;" width="4.481" height="16.726"/>
			<rect x="141.765" y="148.799" style="fill:#EBEBEB;" width="4.481" height="16.726"/>
			
				<rect x="129.335" y="148.512" transform="matrix(0.9762 -0.2169 0.2169 0.9762 -30.8929 32.2721)" style="fill:#EBEBEB;" width="4.481" height="16.726"/>
			<rect x="111.581" y="145.303" style="fill:#EBEBEB;" width="2.241" height="20.222"/>
			<rect x="138.236" y="145.303" style="fill:#EBEBEB;" width="2.241" height="20.222"/>
			<rect x="165.355" y="150.277" style="fill:#EBEBEB;" width="21.836" height="15.075"/>
		</g>
	</g>
</g>
<g id="Background_Simple" style="display:none;">
	<g style="display:inline;">
		<path style="fill:#407BFF;" d="M83.404,285.724c-19.731-41.335-24.537-92.563-5.368-135.015
			c17.236-38.169,55.545-63.089,96.366-68.936c49.166-7.043,86.555,12.725,106.128,58.676c9.029,21.197,13.711,47.252,30.634,64.049
			c22.282,22.116,53.967,3.428,80.497,11.245c30.358,8.947,35.799,44.701,32.594,71.771c-7.878,66.539-73.862,94.324-132.914,101.78
			c-64.259,8.113-134.189-10.918-178.743-59.637C101.218,317.214,91.26,302.181,83.404,285.724z"/>
		<path style="opacity:0.9;fill:#FFFFFF;" d="M83.404,285.724c-19.731-41.335-24.537-92.563-5.368-135.015
			c17.236-38.169,55.545-63.089,96.366-68.936c49.166-7.043,86.555,12.725,106.128,58.676c9.029,21.197,13.711,47.252,30.634,64.049
			c22.282,22.116,53.967,3.428,80.497,11.245c30.358,8.947,35.799,44.701,32.594,71.771c-7.878,66.539-73.862,94.324-132.914,101.78
			c-64.259,8.113-134.189-10.918-178.743-59.637C101.218,317.214,91.26,302.181,83.404,285.724z"/>
	</g>
</g>
<g id="Shadow_1_">
	<ellipse id="_x3C_Path_x3E__359_" style="fill:#F5F5F5;" cx="250" cy="416.238" rx="193.889" ry="11.323"/>
</g>
<g id="Plant">
	<g>
		<g>
			<path style="fill:none;stroke:#407BFF;stroke-miterlimit:10;" d="M74.253,344.136c0,0,5.832-4.863,10.833,0
				c5.001,4.862,5.966,34.985,5.966,34.985"/>
			<path style="fill:none;stroke:#407BFF;stroke-miterlimit:10;" d="M91.465,384.938c0,0-3.438-35.351,9.506-50.207"/>
			<path style="fill:none;stroke:#407BFF;stroke-miterlimit:10;" d="M90.234,381.212c0,0,2.648-40.244-7.06-49.173"/>
			<path style="fill:none;stroke:#407BFF;stroke-miterlimit:10;" d="M91.465,381.212c0,0,0.226-26.593,7.44-30.727
				c7.214-4.134,10.891,9.349,10.891,9.349"/>
			<path style="fill:none;stroke:#407BFF;stroke-miterlimit:10;" d="M88.616,381.212c0,0,1.177-20.415-4.413-27.712
				s-11.473,3.125-11.473,3.125"/>
			<path style="fill:none;stroke:#407BFF;stroke-miterlimit:10;" d="M90.564,383.947c0,0-3.615-47.745,2.367-55.835"/>
		</g>
		<g>
			<path style="fill:#407BFF;" d="M105.083,354.359c0,0-3.597,1.326-2.528,4.457c1.07,3.131,12.444,8.283,12.444,8.283
				s4.764-4.366,0.389-11.468C111.013,348.53,105.18,352.119,105.083,354.359z"/>
			<path style="opacity:0.2;fill:#FFFFFF;enable-background:new    ;" d="M105.083,354.359c0,0-3.597,1.326-2.528,4.457
				c1.07,3.131,12.444,8.283,12.444,8.283s4.764-4.366,0.389-11.468C111.013,348.53,105.18,352.119,105.083,354.359z"/>
		</g>
		<g>
			<path style="fill:#407BFF;" d="M89.445,348.399c0,0,3.831-0.16,4.048,3.141c0.218,3.301-8.298,12.434-8.298,12.434
				s-6.077-2.197-4.772-10.435C81.729,345.302,88.493,346.369,89.445,348.399z"/>
			<path style="opacity:0.2;fill:#FFFFFF;enable-background:new    ;" d="M89.445,348.399c0,0,3.831-0.16,4.048,3.141
				c0.218,3.301-8.298,12.434-8.298,12.434s-6.077-2.197-4.772-10.435C81.729,345.302,88.493,346.369,89.445,348.399z"/>
		</g>
		<g>
			<path style="fill:#407BFF;" d="M86.202,332.597c0,0,2.554-0.274,2.348-1.83c-0.206-1.556-9.928-5.559-15.664,0.915
				c0,0,3.673,6.309,8.982,6.391C87.178,338.156,86.202,332.597,86.202,332.597z"/>
			<path style="opacity:0.2;fill:#FFFFFF;enable-background:new    ;" d="M86.202,332.597c0,0,2.554-0.274,2.348-1.83
				c-0.206-1.556-9.928-5.559-15.664,0.915c0,0,3.673,6.309,8.982,6.391C87.178,338.156,86.202,332.597,86.202,332.597z"/>
		</g>
		<g>
			<path style="fill:#407BFF;" d="M90.961,328.819c0,0-2.312,1.118-2.961-0.311c-0.648-1.429,5.485-9.969,13.777-7.508
				c0,0,0.22,7.297-4.243,10.175C93.073,334.053,90.961,328.819,90.961,328.819z"/>
			<path style="opacity:0.2;fill:#FFFFFF;enable-background:new    ;" d="M90.961,328.819c0,0-2.312,1.118-2.961-0.311
				c-0.648-1.429,5.485-9.969,13.777-7.508c0,0,0.22,7.297-4.243,10.175C93.073,334.053,90.961,328.819,90.961,328.819z"/>
		</g>
		<g>
			<path style="fill:#407BFF;" d="M78.87,353.101c0,0,1.763-1.423-0.139-2.118c-1.902-0.695-11.235-0.497-11.332,8.748
				c0,0,10.87,1.806,12.215-1.715C80.959,354.494,78.87,353.101,78.87,353.101z"/>
			<path style="opacity:0.2;fill:#FFFFFF;enable-background:new    ;" d="M78.87,353.101c0,0,1.763-1.423-0.139-2.118
				c-1.902-0.695-11.235-0.497-11.332,8.748c0,0,10.87,1.806,12.215-1.715C80.959,354.494,78.87,353.101,78.87,353.101z"/>
		</g>
		<g>
			<path style="fill:#407BFF;" d="M101.036,332.365c0,0-1.763-1.423,0.139-2.118c1.902-0.695,11.235-0.497,11.332,8.748
				c0,0-10.87,1.806-12.215-1.715C98.947,333.759,101.036,332.365,101.036,332.365z"/>
			<path style="opacity:0.2;fill:#FFFFFF;enable-background:new    ;" d="M101.036,332.365c0,0-1.763-1.423,0.139-2.118
				c1.902-0.695,11.235-0.497,11.332,8.748c0,0-10.87,1.806-12.215-1.715C98.947,333.759,101.036,332.365,101.036,332.365z"/>
		</g>
		<g>
			<path style="fill:#407BFF;" d="M95.289,339.813c0,0-0.155-1.73,1.242-1.052c1.397,0.678,6.262,5.927,1.219,10.908
				c0,0-6.789-5.028-5.565-7.647C93.408,339.404,95.289,339.813,95.289,339.813z"/>
			<path style="opacity:0.2;fill:#FFFFFF;enable-background:new    ;" d="M95.289,339.813c0,0-0.155-1.73,1.242-1.052
				c1.397,0.678,6.262,5.927,1.219,10.908c0,0-6.789-5.028-5.565-7.647C93.408,339.404,95.289,339.813,95.289,339.813z"/>
		</g>
		<g>
			<path style="fill:#407BFF;" d="M77.294,342.278c0,0,1.054-1.381-0.489-1.552c-1.543-0.171-8.458,1.675-6.848,8.578
				c0,0,8.424-0.633,8.786-3.501C79.104,342.935,77.294,342.278,77.294,342.278z"/>
			<path style="opacity:0.2;fill:#FFFFFF;enable-background:new    ;" d="M77.294,342.278c0,0,1.054-1.381-0.489-1.552
				c-1.543-0.171-8.458,1.675-6.848,8.578c0,0,8.424-0.633,8.786-3.501C79.104,342.935,77.294,342.278,77.294,342.278z"/>
		</g>
		<polygon style="fill:#407BFF;" points="105.756,406.84 76.85,406.84 73.731,375.192 108.874,375.192 		"/>
		<polygon style="opacity:0.5;fill:#FFFFFF;enable-background:new    ;" points="105.756,406.84 76.85,406.84 73.731,375.192 
			108.874,375.192 		"/>
		<rect x="72.188" y="371.7" style="fill:#407BFF;" width="38.229" height="6.984"/>
		<rect x="72.188" y="371.7" style="opacity:0.2;fill:#FFFFFF;enable-background:new    ;" width="38.229" height="6.984"/>
	</g>
</g>
<g id="Interior">
	<g>
		<g>
			<polyline style="fill:#263238;" points="340.019,406.84 340.08,406.47 341.775,386.69 348.975,386.69 343.827,406.84 			"/>
			<polyline style="fill:#263238;" points="406.739,406.84 406.678,406.47 404.983,386.69 397.783,386.69 402.931,406.84 			"/>
		</g>
		<g>
			<polyline style="fill:#263238;" points="330.523,406.84 330.584,406.47 333.862,386.69 341.062,386.69 334.332,406.84 			"/>
			<polyline style="fill:#263238;" points="416.235,406.84 416.174,406.47 412.896,386.69 405.696,386.69 412.426,406.84 			"/>
		</g>
		<g style="opacity:0.2;enable-background:new    ;">
			<polyline style="fill:#FFFFFF;" points="330.523,406.84 330.584,406.47 333.862,386.69 341.062,386.69 334.332,406.84 			"/>
			<polyline style="fill:#FFFFFF;" points="416.235,406.84 416.174,406.47 412.896,386.69 405.696,386.69 412.426,406.84 			"/>
		</g>
		<path style="fill:#407BFF;" d="M416.774,268.291h-86.789c-2.197,0-3.979,1.781-3.979,3.979V387.12
			c0,2.197,1.781,3.979,3.979,3.979h86.789c2.197,0,3.979-1.781,3.979-3.979V272.27
			C420.752,270.072,418.971,268.291,416.774,268.291z"/>
		<path style="opacity:0.4;fill:#FFFFFF;enable-background:new    ;" d="M416.774,268.291h-86.789c-2.197,0-3.979,1.781-3.979,3.979
			V387.12c0,2.197,1.781,3.979,3.979,3.979h86.789c2.197,0,3.979-1.781,3.979-3.979V272.27
			C420.752,270.072,418.971,268.291,416.774,268.291z"/>
		<g>
			<rect x="329.867" y="295.066" style="opacity:0.5;fill:#FFFFFF;enable-background:new    ;" width="87.025" height="44.335"/>
			<rect x="329.867" y="342.355" style="opacity:0.5;fill:#FFFFFF;enable-background:new    ;" width="87.025" height="44.335"/>
			<rect x="329.867" y="272.7" style="opacity:0.5;fill:#FFFFFF;enable-background:new    ;" width="87.025" height="19.412"/>
		</g>
		<path style="opacity:0.5;enable-background:new    ;" d="M380.495,275.926h-14.232c-0.871,0-1.666-0.496-2.049-1.277l-0.956-1.949
			h20.243l-0.956,1.949C382.161,275.431,381.366,275.926,380.495,275.926z"/>
		<path style="opacity:0.5;enable-background:new    ;" d="M380.495,298.292h-14.232c-0.871,0-1.666-0.495-2.049-1.277l-0.956-1.949
			h20.243l-0.956,1.949C382.161,297.797,381.366,298.292,380.495,298.292z"/>
		<path style="opacity:0.5;enable-background:new    ;" d="M380.495,345.582h-14.232c-0.871,0-1.666-0.496-2.049-1.277l-0.956-1.949
			h20.243l-0.956,1.949C382.161,345.086,381.366,345.582,380.495,345.582z"/>
		<g>
			<polygon style="fill:#407BFF;" points="398.692,254.743 406.209,268.291 396.846,268.291 			"/>
			<polygon style="opacity:0.2;enable-background:new    ;" points="398.692,254.743 406.209,268.291 396.846,268.291 			"/>
			<polygon style="fill:#407BFF;" points="401.198,268.291 383.501,268.291 389.039,245.363 406.736,245.363 			"/>
			<polygon style="opacity:0.5;fill:#FFFFFF;enable-background:new    ;" points="385.94,266.471 390.599,247.183 404.297,247.183 
				399.637,266.471 			"/>
		</g>
		<g>
			<polygon style="fill:#407BFF;" points="349.414,257.851 345.022,268.291 356.762,268.291 			"/>
			<polygon style="fill:#407BFF;" points="373.385,268.291 350.898,268.291 345.623,252 368.11,252 			"/>
			<polygon style="opacity:0.2;fill:#FFFFFF;enable-background:new    ;" points="373.385,268.291 350.898,268.291 345.623,252 
				368.11,252 			"/>
			<polygon style="opacity:0.5;fill:#FFFFFF;enable-background:new    ;" points="352.137,265.941 348.384,254.35 366.871,254.35 
				370.624,265.941 			"/>
		</g>
	</g>
</g>
<g id="Device">
	<g>
		<path style="fill:#263238;" d="M273.23,421.617H129.561c-5.745,0-10.402-4.657-10.402-10.402V156.191
			c0-5.745,4.657-10.402,10.402-10.402H273.23c5.745,0,10.402,4.657,10.402,10.402v255.024
			C283.632,416.96,278.975,421.617,273.23,421.617z"/>
		<path style="fill:#407BFF;" d="M278.082,155.699v255.479c0,2.266-1.821,4.026-4.087,4.026H128.36
			c-2.083,0-3.651-1.612-3.651-3.695V155.367c0-1.804,1.325-3.381,3.129-3.381h36.409c1.028,0,1.961,0.671,2.344,1.638l1.508,3.712
			c0.383,0.959,1.316,1.621,2.344,1.621h61.985c1.029,0,1.961-0.636,2.344-1.595l1.508-3.73c0.383-0.967,1.316-1.647,2.344-1.647
			h35.886C276.496,151.986,278.082,153.712,278.082,155.699z"/>
		<path style="opacity:0.3;enable-background:new    ;" d="M278.082,155.699v255.479c0,2.266-1.821,4.026-4.087,4.026H128.36
			c-2.083,0-3.651-1.612-3.651-3.695V155.367c0-1.804,1.325-3.381,3.129-3.381h36.409c1.028,0,1.961,0.671,2.344,1.638l1.508,3.712
			c0.383,0.959,1.316,1.621,2.344,1.621h61.985c1.029,0,1.961-0.636,2.344-1.595l1.508-3.73c0.383-0.967,1.316-1.647,2.344-1.647
			h35.886C276.496,151.986,278.082,153.712,278.082,155.699z"/>
		<rect x="124.709" y="169.197" style="opacity:0.6;fill:#FFFFFF;enable-background:new    ;" width="153.373" height="227.208"/>
		<g>
			<g>
				
					<rect x="141.611" y="160.563" transform="matrix(-1 -1.224647e-16 1.224647e-16 -1 285.1159 323.6505)" style="opacity:0.6;fill:#FFFFFF;enable-background:new    ;" width="1.895" height="2.526"/>
				
					<rect x="138.523" y="159.72" transform="matrix(-1 -1.224647e-16 1.224647e-16 -1 278.9411 322.808)" style="opacity:0.6;fill:#FFFFFF;enable-background:new    ;" width="1.895" height="3.368"/>
				
					<rect x="135.436" y="158.877" transform="matrix(-1 -1.224647e-16 1.224647e-16 -1 272.7663 321.9654)" style="opacity:0.6;fill:#FFFFFF;enable-background:new    ;" width="1.895" height="4.211"/>
				
					<rect x="132.348" y="158.035" transform="matrix(-1 -1.224647e-16 1.224647e-16 -1 266.5915 321.1229)" style="opacity:0.6;fill:#FFFFFF;enable-background:new    ;" width="1.895" height="5.053"/>
			</g>
			<g>
				<rect x="259.601" y="159.641" style="opacity:0.6;fill:#FFFFFF;enable-background:new    ;" width="1.123" height="2.526"/>
				
					<rect x="261.496" y="158.719" transform="matrix(-1 -1.224647e-16 1.224647e-16 -1 531.9378 321.8071)" style="opacity:0.6;fill:#FFFFFF;enable-background:new    ;" width="8.946" height="4.369"/>
			</g>
		</g>
		<g>
			<path style="opacity:0.6;fill:#FFFFFF;enable-background:new    ;" d="M201.37,152.349c0,1.163-0.942,2.105-2.105,2.105
				c-1.162,0-2.105-0.942-2.105-2.105c0-1.163,0.943-2.105,2.105-2.105C200.428,150.244,201.37,151.187,201.37,152.349z"/>
			<path style="opacity:0.6;fill:#FFFFFF;enable-background:new    ;" d="M205.631,152.349c0,0.745-0.604,1.348-1.349,1.348
				s-1.349-0.604-1.349-1.348s0.604-1.349,1.349-1.349S205.631,151.604,205.631,152.349z"/>
		</g>
		<rect x="124.709" y="169.197" style="fill:#407BFF;" width="153.373" height="26.231"/>
		<g>
			<path style="fill:#FFFFFF;" d="M271.568,184.455v-2.018h-1.777c-0.116-0.516-0.322-0.995-0.596-1.429l1.259-1.26l-1.427-1.427
				l-1.259,1.259c-0.434-0.274-0.913-0.479-1.429-0.596v-1.777h-2.018v1.777c-0.516,0.116-0.995,0.322-1.429,0.596l-1.259-1.259
				l-1.427,1.427l1.259,1.259c-0.274,0.434-0.48,0.913-0.595,1.429h-1.777v2.018h1.777c0.116,0.516,0.322,0.995,0.595,1.429
				l-1.259,1.259l1.427,1.427l1.259-1.259c0.433,0.274,0.913,0.48,1.429,0.596v1.777h2.018v-1.777
				c0.516-0.116,0.995-0.322,1.429-0.596l1.259,1.259l1.427-1.427l-1.259-1.259c0.274-0.434,0.48-0.913,0.596-1.429H271.568z
				 M265.33,185.311c-1.03,0-1.865-0.835-1.865-1.865c0-1.03,0.835-1.865,1.865-1.865c1.03,0,1.865,0.835,1.865,1.865
				C267.196,184.476,266.361,185.311,265.33,185.311z"/>
			<polygon style="fill:#FFFFFF;" points="137.967,177.944 131.223,184.352 133.305,184.352 133.305,188.949 142.628,188.949 
				142.628,184.352 144.711,184.352 			"/>
		</g>
		<g>
			<path style="opacity:0.4;enable-background:new    ;" d="M229.895,239.468c0,7.134-2.622,13.657-6.96,18.661
				c-5.222,6.031-12.936,9.844-21.534,9.844c-8.609,0-16.323-3.813-21.546-9.844c-4.337-5.004-6.959-11.527-6.959-18.661
				c0-15.733,12.761-28.494,28.505-28.494C217.134,210.974,229.895,223.735,229.895,239.468z"/>
			<path style="opacity:0.8;fill:#FFFFFF;" d="M222.935,258.129c-5.222,6.031-12.936,9.844-21.534,9.844
				c-8.609,0-16.323-3.813-21.546-9.844c2.087-7.517,7.998-13.417,15.493-15.525c-2.994-1.967-4.971-5.354-4.971-9.21
				c0-6.086,4.927-11.024,11.024-11.024c6.085,0,11.013,4.938,11.013,11.024c0,3.857-1.977,7.244-4.971,9.21
				C214.938,244.712,220.848,250.612,222.935,258.129z"/>
		</g>
		<g>
			<g style="opacity:0.5;enable-background:new    ;">
				<path d="M147.897,284.878v0.522h-3.046v-4.197h2.962v0.522h-2.362v1.289h2.105v0.51h-2.105v1.355H147.897z"/>
				<path d="M148.463,283.505h1.613v0.497h-1.613V283.505z"/>
				<path d="M156.242,283.57v1.829h-0.576v-1.763c0-0.624-0.3-0.93-0.821-0.93c-0.576,0-0.954,0.365-0.954,1.056v1.637h-0.576
					v-1.763c0-0.624-0.3-0.93-0.822-0.93c-0.576,0-0.953,0.365-0.953,1.056v1.637h-0.576v-3.179h0.551v0.475
					c0.228-0.324,0.618-0.504,1.098-0.504c0.486,0,0.893,0.191,1.104,0.588c0.24-0.36,0.684-0.588,1.223-0.588
					C155.714,282.191,156.242,282.635,156.242,283.57z"/>
				<path d="M159.826,283.48v1.919h-0.546v-0.42c-0.192,0.288-0.545,0.456-1.044,0.456c-0.72,0-1.175-0.384-1.175-0.935
					c0-0.51,0.33-0.93,1.277-0.93h0.912v-0.114c0-0.485-0.282-0.768-0.852-0.768c-0.378,0-0.762,0.133-1.007,0.342l-0.24-0.432
					c0.33-0.264,0.804-0.407,1.314-0.407C159.334,282.191,159.826,282.611,159.826,283.48z M159.25,284.428v-0.443h-0.888
					c-0.57,0-0.731,0.222-0.731,0.491c0,0.318,0.264,0.516,0.702,0.516C158.764,284.991,159.106,284.794,159.25,284.428z"/>
				<path d="M160.793,281.237c0-0.21,0.168-0.377,0.39-0.377c0.222,0,0.39,0.161,0.39,0.365c0,0.216-0.162,0.384-0.39,0.384
					C160.961,281.609,160.793,281.447,160.793,281.237z M160.895,282.221h0.576v3.179h-0.576V282.221z"/>
				<path d="M162.569,280.95h0.576v4.449h-0.576V280.95z"/>
			</g>
			<g style="opacity:0.8;">
				<path style="fill:#FFFFFF;" d="M251.053,306.187h-99.316c-4.151,0-7.516-3.365-7.516-7.517l0,0c0-4.151,3.365-7.516,7.516-7.516
					h99.316c4.151,0,7.517,3.365,7.517,7.516l0,0C258.57,302.822,255.204,306.187,251.053,306.187z"/>
			</g>
		</g>
		<g>
			<g style="opacity:0.5;">
				<path d="M148.239,319.665c0,0.911-0.659,1.463-1.751,1.463h-1.037v1.272h-0.6v-4.197h1.637
					C147.58,318.202,148.239,318.754,148.239,319.665z M147.639,319.665c0-0.6-0.402-0.941-1.17-0.941h-1.019v1.883h1.019
					C147.237,320.606,147.639,320.265,147.639,319.665z"/>
				<path d="M151.527,320.48v1.919h-0.546v-0.42c-0.192,0.288-0.545,0.456-1.043,0.456c-0.72,0-1.175-0.384-1.175-0.935
					c0-0.51,0.33-0.93,1.277-0.93h0.912v-0.114c0-0.485-0.282-0.768-0.852-0.768c-0.378,0-0.762,0.133-1.007,0.342l-0.24-0.432
					c0.33-0.264,0.804-0.407,1.314-0.407C151.036,319.191,151.527,319.611,151.527,320.48z M150.952,321.428v-0.443h-0.888
					c-0.57,0-0.731,0.222-0.731,0.491c0,0.318,0.264,0.516,0.702,0.516C150.466,321.991,150.808,321.794,150.952,321.428z"/>
				<path d="M152.195,322.064l0.24-0.456c0.27,0.192,0.702,0.33,1.115,0.33c0.534,0,0.756-0.162,0.756-0.432
					c0-0.714-2.009-0.096-2.009-1.361c0-0.569,0.509-0.953,1.325-0.953c0.413,0,0.881,0.107,1.157,0.288l-0.246,0.455
					c-0.288-0.186-0.605-0.252-0.918-0.252c-0.503,0-0.749,0.187-0.749,0.439c0,0.749,2.015,0.138,2.015,1.373
					c0,0.575-0.528,0.941-1.374,0.941C152.981,322.435,152.459,322.273,152.195,322.064z"/>
				<path d="M155.201,322.064l0.24-0.456c0.27,0.192,0.702,0.33,1.115,0.33c0.534,0,0.756-0.162,0.756-0.432
					c0-0.714-2.009-0.096-2.009-1.361c0-0.569,0.509-0.953,1.325-0.953c0.414,0,0.881,0.107,1.157,0.288l-0.246,0.455
					c-0.288-0.186-0.605-0.252-0.917-0.252c-0.503,0-0.749,0.187-0.749,0.439c0,0.749,2.015,0.138,2.015,1.373
					c0,0.575-0.528,0.941-1.373,0.941C155.987,322.435,155.465,322.273,155.201,322.064z"/>
				<path d="M163.358,319.221l-1.188,3.179h-0.551l-0.917-2.411l-0.93,2.411h-0.552l-1.181-3.179h0.545l0.924,2.531l0.96-2.531
					h0.485l0.942,2.543l0.947-2.543H163.358z"/>
				<path d="M163.559,320.81c0-0.947,0.702-1.619,1.655-1.619c0.954,0,1.649,0.672,1.649,1.619c0,0.947-0.696,1.625-1.649,1.625
					C164.261,322.435,163.559,321.758,163.559,320.81z M166.282,320.81c0-0.678-0.456-1.115-1.068-1.115
					c-0.611,0-1.073,0.438-1.073,1.115c0,0.678,0.462,1.121,1.073,1.121C165.826,321.932,166.282,321.488,166.282,320.81z"/>
				<path d="M169.372,319.191v0.558c-0.048-0.006-0.09-0.006-0.132-0.006c-0.618,0-1.001,0.378-1.001,1.073v1.583h-0.576v-3.179
					h0.551v0.534C168.418,319.383,168.814,319.191,169.372,319.191z"/>
				<path d="M173.049,317.95v4.449h-0.552v-0.504c-0.258,0.36-0.666,0.54-1.133,0.54c-0.929,0-1.607-0.653-1.607-1.625
					c0-0.972,0.678-1.619,1.607-1.619c0.45,0,0.846,0.168,1.109,0.51v-1.751H173.049z M172.479,320.81
					c0-0.678-0.461-1.115-1.067-1.115c-0.611,0-1.073,0.438-1.073,1.115c0,0.678,0.462,1.121,1.073,1.121
					C172.018,321.932,172.479,321.488,172.479,320.81z"/>
			</g>
			<g style="opacity:0.8;">
				<path style="fill:#FFFFFF;" d="M251.053,343.187h-99.316c-4.151,0-7.516-3.365-7.516-7.517l0,0c0-4.151,3.365-7.516,7.516-7.516
					h99.316c4.151,0,7.517,3.365,7.517,7.516l0,0C258.57,339.822,255.204,343.187,251.053,343.187z"/>
			</g>
		</g>
		<g>
			<path style="fill:#407BFF;" d="M226.053,374.187h-49.316c-4.151,0-7.516-3.365-7.516-7.517l0,0c0-4.151,3.365-7.516,7.516-7.516
				h49.316c4.151,0,7.516,3.365,7.516,7.516l0,0C233.57,370.822,230.204,374.187,226.053,374.187z"/>
			<g>
				
					<text transform="matrix(1 0 0 1 186.5622 369.9229)" style="fill:#FFFFFF; font-family:'Montserrat-Medium'; font-size:8.4761px;">Sign in</text>
			</g>
		</g>
	</g>
</g>
<g id="Speech_bubbles">
	<g>
		<path style="fill:#407BFF;" d="M380.104,184.923l-42.948-0.407c-2.039-0.025-3.672-1.699-3.646-3.738l0.407-12.948
			c0.025-2.039,1.699-3.672,3.738-3.646l42.948,0.407c2.039,0.025,3.672,1.699,3.647,3.738l-0.407,12.948
			C383.816,183.315,382.143,184.948,380.104,184.923z"/>
		<path style="fill:#407BFF;" d="M358.001,181.65c0,0-5.443,12.034-17.337,15.669c0,0,6.601-3.7,6.252-16.31L358.001,181.65z"/>
		<g>
			<path style="fill:#FFFFFF;" d="M344.652,174.4l1.024,0.555l-0.461,0.771l-1.034-0.611l0.019,1.137h-0.884l0.01-1.146l-1.034,0.62
				l-0.451-0.771l1.024-0.555l-1.024-0.564l0.451-0.77l1.034,0.62l-0.01-1.146h0.884l-0.019,1.146l1.034-0.62l0.461,0.77
				L344.652,174.4z"/>
			<path style="fill:#FFFFFF;" d="M350.795,174.4l1.024,0.555l-0.46,0.771l-1.034-0.611l0.019,1.137h-0.883l0.009-1.146l-1.034,0.62
				l-0.451-0.771l1.025-0.555l-1.025-0.564l0.451-0.77l1.034,0.62l-0.009-1.146h0.883l-0.019,1.146l1.034-0.62l0.46,0.77
				L350.795,174.4z"/>
			<path style="fill:#FFFFFF;" d="M356.938,174.4l1.024,0.555l-0.46,0.771l-1.034-0.611l0.018,1.137h-0.884l0.01-1.146l-1.034,0.62
				l-0.451-0.771l1.024-0.555l-1.024-0.564l0.451-0.77l1.034,0.62l-0.01-1.146h0.884l-0.018,1.146l1.034-0.62l0.46,0.77
				L356.938,174.4z"/>
			<path style="fill:#FFFFFF;" d="M363.082,174.4l1.024,0.555l-0.46,0.771l-1.034-0.611l0.019,1.137h-0.884l0.01-1.146l-1.034,0.62
				l-0.451-0.771l1.024-0.555l-1.024-0.564l0.451-0.77l1.034,0.62l-0.01-1.146h0.884l-0.019,1.146l1.034-0.62l0.46,0.77
				L363.082,174.4z"/>
			<path style="fill:#FFFFFF;" d="M369.225,174.4l1.024,0.555l-0.46,0.771l-1.034-0.611l0.019,1.137h-0.883l0.009-1.146l-1.034,0.62
				l-0.451-0.771l1.025-0.555l-1.025-0.564l0.451-0.77l1.034,0.62l-0.009-1.146h0.883l-0.019,1.146l1.034-0.62l0.46,0.77
				L369.225,174.4z"/>
			<path style="fill:#FFFFFF;" d="M375.368,174.4l1.024,0.555l-0.46,0.771l-1.034-0.611l0.019,1.137h-0.884l0.01-1.146l-1.034,0.62
				l-0.451-0.771l1.024-0.555l-1.024-0.564l0.451-0.77l1.034,0.62l-0.01-1.146h0.884l-0.019,1.146l1.034-0.62l0.46,0.77
				L375.368,174.4z"/>
		</g>
	</g>
</g>
<g id="Character">
	<g>
		<g>
			<path style="fill:#EBB376;" d="M312.141,205.975c5.721,0.886,11.271,18.503,13.681,19.959c2.41,1.457,0.334-16.501,0.334-16.501
				l4.583-0.616c0,0,5.42,27.126-2.487,26.926c-6.024-0.152-13.2-10.229-14.959-15.349L312.141,205.975z"/>
			<path style="opacity:0.1;enable-background:new    ;" d="M328.25,235.74c-3.65-0.09-7.74-3.84-10.78-7.92
				c-1.96-2.64-3.49-5.42-4.18-7.43l-0.59-7.4l-0.56-7.02c5.72,0.89,11.27,18.51,13.68,19.96c2.41,1.46,0.34-16.5,0.34-16.5
				l4.58-0.61C330.74,208.82,336.16,235.94,328.25,235.74z"/>
		</g>
		<path style="opacity:0.2;enable-background:new    ;" d="M317.47,227.82c-1.96-2.64-3.49-5.42-4.18-7.43l-0.59-7.4l0.01-0.01
			C312.71,212.98,318.94,219.27,317.47,227.82z"/>
		<path style="fill:#263238;" d="M291.077,169.56c0,0-10.187-0.116-9.692,13.886c0.494,14.001,10.286,14.202,7.022,18.257
			c0,0,8.177,4.154,18.479,0c0,0-1.802-0.715-0.942-3.284c0.86-2.569,5.581-6.247,6.038-11.668
			C312.44,181.33,301.616,168.159,291.077,169.56z"/>
		<path style="fill:#263238;" d="M301.145,196.376c0,0,13.005-2.402,10.833-14.764c-1.78-10.134-6.504-13.384-10.833-14.835
			c-3.675-1.232-7.604-0.123-10.309,3.458c0,0-8.82-2.497-7.29,12.013C285.077,196.758,294.664,202.983,301.145,196.376z"/>
		<polygon style="fill:#EBB376;" points="324.847,403.488 319.066,400.531 321.166,391.895 323.106,383.978 330.392,386.359 
			327.46,395.429 		"/>
		<g>
			<path style="fill:#263238;" d="M317.461,399.174c0.34-0.644,8.097,3.858,8.097,3.858s2.431,7.469,6.658,10.98
				c4.227,3.512,0.12,5.052-5.231,2.386c-5.351-2.666-9.435-4.7-13.238-6.594C309.945,407.91,313.935,405.855,317.461,399.174z"/>
			<g>
				<path style="fill:#407BFF;" d="M328.194,406.833c-0.979-0.724-1.988-1.975-2.257-2.32c-0.018-0.023-0.032-0.048-0.04-0.076l0,0
					l0,0c-0.009-0.028-0.012-0.057-0.01-0.088l0,0c0.001-0.001,0-0.001,0-0.001c0.001-0.02,0.006-0.04,0.013-0.06
					c0,0,0,0,0.001-0.001l0,0c0.013-0.034,0.033-0.065,0.058-0.089c0.074-0.071,1.675-1.6,2.985-1.511
					c0.417,0.027,0.758,0.212,1.023,0.544c0.279,0.355,0.343,0.67,0.191,0.936c-0.234,0.409-1.015,0.547-1.84,0.57
					c0.71,0.272,1.393,0.636,1.699,1.091c0.161,0.243,0.214,0.497,0.158,0.756c-0.116,0.536-0.402,0.708-0.62,0.758
					C329.174,407.429,328.688,407.199,328.194,406.833z M326.737,404.745c0.932,1.089,2.179,2.261,2.712,2.138
					c0.046-0.011,0.187-0.043,0.264-0.397c0.029-0.132-0.001-0.26-0.09-0.394C329.212,405.473,327.735,404.991,326.737,404.745z
					 M329.4,403.331c-0.14-0.103-0.301-0.16-0.488-0.173c-0.714-0.049-1.654,0.57-2.233,1.037c1.412,0.14,2.868,0.088,3.069-0.262
					c0.062-0.109-0.069-0.303-0.153-0.41C329.535,403.448,329.47,403.383,329.4,403.331z"/>
			</g>
		</g>
		<polygon style="opacity:0.2;enable-background:new    ;" points="327.392,395.61 321.106,392.056 323.076,384.058 
			330.377,386.399 		"/>
		<polygon style="fill:#EBB376;" points="314.652,410.71 308.044,410.71 306.151,402.215 304.429,394.42 312.161,393.242 
			313.484,402.49 		"/>
		<g>
			<path style="fill:#263238;" d="M305.856,410.447c0.017-0.728,8.968-0.157,8.968-0.157s5.507,5.601,10.856,6.86
				c5.349,1.259,2.36,4.468-3.619,4.468c-5.978,0-10.541,0-14.789,0C303.024,421.617,305.679,417.999,305.856,410.447z"/>
			<g>
				<path style="fill:#407BFF;" d="M319.533,412.58c-1.251,0-3.239-0.91-3.71-1.134c-0.032-0.014-0.058-0.035-0.079-0.061l0,0h0
					c-0.012-0.015-0.023-0.033-0.032-0.05c-0.026-0.055-0.031-0.12-0.009-0.181c0.031-0.089,0.783-2.178,1.997-2.683
					c0.385-0.16,0.775-0.149,1.158,0.031c0.408,0.194,0.606,0.447,0.588,0.753c-0.027,0.47-0.665,0.943-1.392,1.331
					c0.757-0.074,1.532-0.053,2.007,0.219c0.252,0.145,0.413,0.349,0.478,0.606c0.135,0.53-0.043,0.812-0.217,0.954
					C320.137,412.518,319.86,412.58,319.533,412.58z M316.642,411.296c1.318,0.558,2.958,1.052,3.381,0.705
					c0.037-0.031,0.148-0.122,0.059-0.473c-0.033-0.131-0.117-0.233-0.256-0.313C319.181,410.845,317.646,411.073,316.642,411.296z
					 M318.244,408.831c-0.12,0-0.24,0.026-0.362,0.076c-0.661,0.275-1.227,1.248-1.536,1.924c1.326-0.504,2.607-1.2,2.63-1.603
					c0.007-0.125-0.197-0.241-0.319-0.299C318.517,408.864,318.38,408.831,318.244,408.831z"/>
			</g>
		</g>
		<polygon style="opacity:0.2;enable-background:new    ;" points="313.502,402.678 306.167,402.382 304.437,394.504 
			312.165,393.284 		"/>
		<g>
			<path style="fill:#263238;" d="M282.419,255.143l16.235-2.6l14.705-2.999l3.958,23.96c0,0,20.709,30.005,25.729,50.632
				c5.02,20.627-13.802,68.525-13.802,68.525l-8.657-3.827c0,0,6.006-46.049,5.864-51.587c-0.092-3.6-11.904-20.2-20.164-31.383
				c-0.232,2.803,2.442,30.816,2.442,30.816l5.835,61.404h-10.864C266.217,281.733,282.419,255.143,282.419,255.143z"/>
			<path style="opacity:0.6;fill:#FFFFFF;enable-background:new    ;" d="M303.701,398.083h10.86l-5.83-61.4
				c0,0-2.66-28.2-2.44-30.82c1.63,2.21,3.4,4.62,5.19,7.11c7.27,10.11,14.9,21.38,14.97,24.27c0.14,5.54-5.86,51.59-5.86,51.59
				l8.65,3.83c0,0,18.83-47.9,13.81-68.53c-5.02-20.62-25.73-50.63-25.73-50.63l-3.96-23.96l-14.71,3l-16.23,2.6
				C282.421,255.143,266.221,281.733,303.701,398.083z"/>
		</g>
		<polygon style="fill:#407BFF;" points="320.137,384.961 332.91,389.358 330.065,393.735 319.567,389.988 		"/>
		<polygon style="fill:#407BFF;" points="302.141,396.608 315.796,394.739 315.123,399.842 303.842,401.262 		"/>
		<path style="opacity:0.2;enable-background:new    ;" d="M306.291,305.863c1.63,2.21,3.4,4.62,5.19,7.11
			c-2.86-14.82-6.23-29.25-6.23-29.25C304.491,295.413,306.291,305.863,306.291,305.863z"/>
		<g>
			<path style="fill:#407BFF;" d="M313.07,250.48l-29.61,2.05c0,0-0.4-15.86-2.76-24.11c-0.32-1.11-0.67-2.27-1.06-3.51
				c-0.55-1.74-1.18-3.61-1.9-5.65c-0.17-0.48-0.6-1.68-1.12-3.07c-0.87-2.37-0.2-4.89,1.45-6.51c0.79-0.79,1.81-1.37,2.99-1.63
				c2.18-0.48,4.33-0.93,5.5-1.11c4.43-0.7,8.9-1.13,13.4-1.27c3.8-0.03,7.97,0.22,10.4,0.39c1.28,0.09,2.08,0.16,2.08,0.16
				s0.94,0.21,1.54,5.72C314.53,217.12,314.27,231.64,313.07,250.48z"/>
		</g>
		<path style="fill:#EBB376;" d="M298.967,211.949c-7.469-1.345-9.564-4.671-9.564-4.671c4.999-4.257,1.433-12.257,1.433-12.257
			l8.963,2.15c-0.314,1.483-0.479,2.732-0.547,3.791c-0.348,5.488,2.133,5.669,2.133,5.669
			C302.821,209.687,298.967,211.949,298.967,211.949z"/>
		<path style="opacity:0.2;enable-background:new    ;" d="M299.799,197.171c-0.314,1.483-0.479,2.732-0.547,3.791
			c-4.311-1.233-8.415-5.941-8.415-5.941L299.799,197.171z"/>
		<g>
			<path style="fill:#EBB376;" d="M299.136,171.52c7.856,0.707,10.006,5.14,9.854,13.287c-0.191,10.182-3.081,17.168-12.709,14.124
				C283.204,194.796,286.089,170.346,299.136,171.52z"/>
			<path style="fill:#D58745;" d="M303.95,183.911c0,0,0.904,2.15,1.993,3.464c0,0-0.769,1.008-2.151,0.702L303.95,183.911z"/>
			<g>
				<path style="fill:#263238;" d="M299.2,182.836c-0.043,0.647-0.427,1.148-0.858,1.119c-0.431-0.029-0.746-0.576-0.703-1.223
					c0.043-0.647,0.427-1.148,0.858-1.119C298.928,181.642,299.243,182.19,299.2,182.836z"/>
				<path style="fill:#263238;" d="M298.315,181.633l1.443-0.458C299.758,181.175,298.979,182.312,298.315,181.633z"/>
			</g>
			<g>
				<path style="fill:#263238;" d="M307.248,183.236c-0.043,0.647-0.427,1.148-0.858,1.119c-0.431-0.029-0.746-0.576-0.703-1.223
					c0.043-0.647,0.427-1.148,0.858-1.119C306.976,182.042,307.291,182.589,307.248,183.236z"/>
				<path style="fill:#263238;" d="M306.363,182.032l1.443-0.458C307.806,181.574,307.027,182.711,306.363,182.032z"/>
			</g>
			
				<path style="fill:none;stroke:#263238;stroke-width:0.7247;stroke-linecap:round;stroke-linejoin:round;stroke-miterlimit:10;" d="
				M299.609,177.404c0,0-2.182-0.486-3.514,0.881"/>
			
				<path style="fill:none;stroke:#263238;stroke-width:0.7247;stroke-linecap:round;stroke-linejoin:round;stroke-miterlimit:10;" d="
				M305.349,177.586c0,0,1.434-0.389,3.073,0.927"/>
			<path style="fill:#263238;" d="M289.359,183.988c0,0,4.254-6.124,4.145-11.157c0,0,16.14-4.96,15.487,10.911
				c0,0,2.783-13.894-10.694-15.422c-13.455-1.525-15.196,18.235-8.751,24.749C289.547,193.069,286.724,187.82,289.359,183.988z"/>
			<path style="fill:#EBB376;" d="M290.493,185.762c0.061-1.27-1.051-3.528-3.427-3.483c-2.458,0.047-4.068,4.94,1.879,6.686
				C289.799,189.216,290.365,188.411,290.493,185.762z"/>
			
				<path style="fill:none;stroke:#263238;stroke-width:0.708;stroke-linecap:round;stroke-linejoin:round;stroke-miterlimit:10;" d="
				M303.254,191.385c0,0-3.3,0.268-4.217-2.777"/>
		</g>
		<path style="fill:none;stroke:#263238;stroke-width:0.708;stroke-linecap:round;stroke-linejoin:round;stroke-miterlimit:10;" d="
			M293.586,172.509c0,0,12.096-1.729,15.284,8.666"/>
		<g>
			<path style="fill:#EBB376;" d="M329.199,198.421c0,0,4.129-0.074,4.272,0.653c0.143,0.727-0.126,6.766-0.676,7.616
				c-0.55,0.849-2.055,2.074-2.055,2.074l0.4,10.714l-2.456,0.863l-2.238-9.808c0,0-2.531-2.471-1.789-5.605
				C325.398,201.793,329.199,198.421,329.199,198.421z"/>
			<path style="opacity:0.1;enable-background:new    ;" d="M329.199,198.421c0,0,4.129-0.074,4.272,0.653
				c0.143,0.727-0.126,6.766-0.676,7.616c-0.55,0.849-2.055,2.074-2.055,2.074l0.4,10.714l-2.456,0.863l-2.238-9.808
				c0,0-2.531-2.471-1.789-5.605C325.398,201.793,329.199,198.421,329.199,198.421z"/>
		</g>
		<g>
			<path style="fill:#263238;" d="M322.191,203.698c-0.014,0.393,0.294,0.687,0.689,0.657l7.023-0.545
				c0.395-0.031,0.726-0.374,0.74-0.767l0.492-13.982c0.014-0.393-0.302-0.783-0.697-0.753l-7.023,0.545
				c-0.395,0.031-0.719,0.47-0.733,0.863L322.191,203.698z"/>
			<path style="opacity:0.5;fill:#FFFFFF;" d="M323.456,189.564l-0.503,14.118c-0.014,0.398,0.212,0.65,0.604,0.62l5.955-0.462
				c0.4-0.031,1.114-0.308,1.129-0.706l0.499-14.166c0.014-0.398-0.692-0.661-1.092-0.63l-5.955,0.462
				C323.701,188.83,323.47,189.166,323.456,189.564z"/>
		</g>
		<path style="fill:#EBB376;" d="M315.052,214.319l2.671-6.225c0,0,0.868-8.358,1.291-9.252c0.423-0.895,7.219-0.56,7.953-0.617
			c0.734-0.057,0.599,8.287-0.111,9.161c-0.71,0.874-3.486,1.582-3.486,1.582l-4.268,8.285L315.052,214.319z"/>
		<path style="fill:#EBB376;" d="M307.53,210.94c-0.72,2.86-3.49,5.06-9.22,5.01c-3.64-0.04-6.63-1.4-8.96-3.08
			c-2.7-1.95-4.49-4.31-5.3-5.52c0.83-0.15,1.67-0.28,2.51-0.41c4.43-0.7,8.9-1.13,13.4-1.27c2.37-0.02,4.88,0.07,7.02,0.18
			C307.69,207.56,307.93,209.35,307.53,210.94z"/>
		<g>
			<polygon style="fill:#263238;" points="283.378,250.292 282.136,255.707 314.101,254.033 313.184,248.678 			"/>
			<g>
				<path style="fill:none;stroke:#FFFFFF;stroke-linecap:round;stroke-linejoin:round;stroke-miterlimit:10;" d="M300.48,250.333
					l0.368,3.462c0.04,0.38,0.376,0.658,0.756,0.628l4.615-0.367c0.392-0.031,0.682-0.377,0.645-0.769l-0.325-3.412
					c-0.036-0.38-0.368-0.662-0.749-0.636l-4.658,0.317C300.733,249.583,300.437,249.936,300.48,250.333z"/>
				
					<line style="fill:none;stroke:#FFFFFF;stroke-linecap:round;stroke-linejoin:round;stroke-miterlimit:10;" x1="304.264" y1="251.484" x2="305.978" y2="251.484"/>
			</g>
		</g>
		<path style="opacity:0.2;enable-background:new    ;" d="M287.79,227.35c-2.83,0.97-5.97-0.75-8.15-2.44
			c-0.55-1.74-1.18-3.61-1.9-5.65c-0.17-0.48-0.6-1.68-1.12-3.07c-0.87-2.37-0.2-4.89,1.45-6.51
			C283.51,214.81,291.57,226.06,287.79,227.35z"/>
		<path style="fill:#EBB376;" d="M277.989,209.025c2.396-1.937,5.931-1.436,7.693,1.092c4.386,6.291,11.758,16.75,12.645,17.263
			c1.274,0.737,10.858-8.092,19.396-19.286l5.229,1.966c0,0-13.509,27.78-23.105,27.898c-7.185,0.089-17.954-14.49-22.911-21.82
			C275.389,213.85,275.841,210.762,277.989,209.025L277.989,209.025z"/>
		<path style="opacity:0.2;enable-background:new    ;" d="M287.795,260.146c0,0-2.442,6.633-8.475,9.007v2.375
			c0,0,8.845-3.755,10.084-10.01L287.795,260.146z"/>
		<polygon style="opacity:0.2;enable-background:new    ;" points="280.934,295.066 289.403,293.483 291.418,310.498 
			283.308,311.681 282.136,300.604 289.459,299.555 289.044,295.363 288.916,299.087 280.687,300.407 		"/>
	</g>
</g>
</svg>
