<?xml version="1.0" standalone="no"?>
<svg xmlns:xlink="http://www.w3.org/1999/xlink" id="wave" style="transform:rotate(0deg); transition: 0.3s" viewBox="0 0 1440 490" version="1.1" xmlns="http://www.w3.org/2000/svg"><defs><linearGradient id="sw-gradient-0" x1="0" x2="0" y1="1" y2="0"><stop stop-color="#2b3892
" offset="0%"/><stop stop-color="#2b3892
" offset="100%"/></linearGradient></defs><path style="transform:translate(0, 0px); opacity:1" fill="url(#sw-gradient-0)" d="M0,392L40,326.7C80,261,160,131,240,98C320,65,400,131,480,196C560,261,640,327,720,359.3C800,392,880,392,960,326.7C1040,261,1120,131,1200,65.3C1280,0,1360,0,1440,65.3C1520,131,1600,261,1680,269.5C1760,278,1840,163,1920,155.2C2000,147,2080,245,2160,310.3C2240,376,2320,408,2400,424.7C2480,441,2560,441,2640,392C2720,343,2800,245,2880,171.5C2960,98,3040,49,3120,65.3C3200,82,3280,163,3360,171.5C3440,180,3520,114,3600,98C3680,82,3760,114,3840,155.2C3920,196,4000,245,4080,220.5C4160,196,4240,98,4320,73.5C4400,49,4480,98,4560,138.8C4640,180,4720,212,4800,245C4880,278,4960,310,5040,318.5C5120,327,5200,310,5280,294C5360,278,5440,261,5520,269.5C5600,278,5680,310,5720,326.7L5760,343L5760,490L5720,490C5680,490,5600,490,5520,490C5440,490,5360,490,5280,490C5200,490,5120,490,5040,490C4960,490,4880,490,4800,490C4720,490,4640,490,4560,490C4480,490,4400,490,4320,490C4240,490,4160,490,4080,490C4000,490,3920,490,3840,490C3760,490,3680,490,3600,490C3520,490,3440,490,3360,490C3280,490,3200,490,3120,490C3040,490,2960,490,2880,490C2800,490,2720,490,2640,490C2560,490,2480,490,2400,490C2320,490,2240,490,2160,490C2080,490,2000,490,1920,490C1840,490,1760,490,1680,490C1600,490,1520,490,1440,490C1360,490,1280,490,1200,490C1120,490,1040,490,960,490C880,490,800,490,720,490C640,490,560,490,480,490C400,490,320,490,240,490C160,490,80,490,40,490L0,490Z"/></svg>

