<?xml version="1.0" standalone="no"?><svg xmlns="http://www.w3.org/2000/svg" viewBox="0 0 1440 320"><path fill="#2b3892" fill-opacity="1" d="M0,256L17.1,224C34.3,192,69,128,103,112C137.1,96,171,128,206,133.3C240,139,274,117,309,138.7C342.9,160,377,224,411,245.3C445.7,267,480,245,514,240C548.6,235,583,245,617,240C651.4,235,686,213,720,208C754.3,203,789,213,823,186.7C857.1,160,891,96,926,80C960,64,994,96,1029,117.3C1062.9,139,1097,149,1131,170.7C1165.7,192,1200,224,1234,197.3C1268.6,171,1303,85,1337,42.7C1371.4,0,1406,0,1423,0L1440,0L1440,320L1422.9,320C1405.7,320,1371,320,1337,320C1302.9,320,1269,320,1234,320C1200,320,1166,320,1131,320C1097.1,320,1063,320,1029,320C994.3,320,960,320,926,320C891.4,320,857,320,823,320C788.6,320,754,320,720,320C685.7,320,651,320,617,320C582.9,320,549,320,514,320C480,320,446,320,411,320C377.1,320,343,320,309,320C274.3,320,240,320,206,320C171.4,320,137,320,103,320C68.6,320,34,320,17,320L0,320Z"></path></svg>