<?xml version="1.0" standalone="no"?><svg xmlns="http://www.w3.org/2000/svg" viewBox="0 0 1440 320"><path fill="#2b3892" fill-opacity="1" d="M0,224L24,224C48,224,96,224,144,192C192,160,240,96,288,64C336,32,384,32,432,32C480,32,528,32,576,37.3C624,43,672,53,720,64C768,75,816,85,864,85.3C912,85,960,75,1008,74.7C1056,75,1104,85,1152,74.7C1200,64,1248,32,1296,58.7C1344,85,1392,171,1416,213.3L1440,256L1440,0L1416,0C1392,0,1344,0,1296,0C1248,0,1200,0,1152,0C1104,0,1056,0,1008,0C960,0,912,0,864,0C816,0,768,0,720,0C672,0,624,0,576,0C528,0,480,0,432,0C384,0,336,0,288,0C240,0,192,0,144,0C96,0,48,0,24,0L0,0Z"></path></svg>