<?xml version="1.0" standalone="no"?><svg xmlns="http://www.w3.org/2000/svg" viewBox="0 0 1440 320"><path fill="#2b3892" fill-opacity="1" d="M0,128L34.3,138.7C68.6,149,137,171,206,170.7C274.3,171,343,149,411,128C480,107,549,85,617,112C685.7,139,754,213,823,202.7C891.4,192,960,96,1029,58.7C1097.1,21,1166,43,1234,74.7C1302.9,107,1371,149,1406,170.7L1440,192L1440,0L1405.7,0C1371.4,0,1303,0,1234,0C1165.7,0,1097,0,1029,0C960,0,891,0,823,0C754.3,0,686,0,617,0C548.6,0,480,0,411,0C342.9,0,274,0,206,0C137.1,0,69,0,34,0L0,0Z"></path></svg>